# xmcd
#
# Track frame offsets: 
#        150
#        12107
#        22632
#        31307
#        43192
#        55447
#        67135
#        77245
#        90852
#        104170
#        114365
#        123557
#        134735
#        145332
#        157147
#        168237
#        179862
#        189090
#        198050
#        207012
#        217952
#
# Disc length: 3038 seconds
#
# Revision: 0
# Processed by: cddbd v1.5.2PL0 Copyright (c) Steve Scherf et al.
# Submitted via: ExactAudioCopyFreeDBPlugin 1.0
#
DISCID=2a0bdc15
DTITLE=Pat Boon - Pat Boone - Greatest Hits and Performances
DYEAR=1995
DGENRE=Easy Listening
TTITLE0=Almost Lost My Mind
TTITLE1=Don't Forbid me
TTITLE2=Sugar Moon
TTITLE3=Moody River
TTITLE4=If Dreams Came True
TTITLE5=It's Too Soon To Know
TTITLE6=Love Letters In The Sand
TTITLE7=I'll Be Home
TTITLE8=Chains of Love
TTITLE9=Wish You Were Here, Buddy
TTITLE10=Good Rockin' Tonight
TTITLE11=Tutti Frutti
TTITLE12=Alabam
TTITLE13=Two Hearts
TTITLE14=Gee Whittackers!
TTITLE15=Speedy Gonzales
TTITLE16=At My Front Door (Crazy Little Mama)
TTITLE17=Why Baby Why
TTITLE18=That's How Much I Love You
TTITLE19=Ain't That A Shame!
TTITLE20=Long Tall Sally
EXTD=
EXTT0=
EXTT1=
EXTT2=
EXTT3=
EXTT4=
EXTT5=
EXTT6=
EXTT7=
EXTT8=
EXTT9=
EXTT10=
EXTT11=
EXTT12=
EXTT13=
EXTT14=
EXTT15=
EXTT16=
EXTT17=
EXTT18=
EXTT19=
EXTT20=
PLAYORDER=
